<mxfile host="app.diagrams.net" modified="2024-05-16T08:33:34.355Z" agent="Mozilla/5.0 (Windows NT 10.0; Win64; x64) AppleWebKit/537.36 (KHTML, like Gecko) Chrome/124.0.0.0 Safari/537.36" version="23.1.0" etag="AKYcUoi_nO9uvoa2oqUw" type="github">
  <diagram name="Halaman-1" id="F_ZZNzsOpYxZgieWhEA7">
    <mxGraphModel>
      <root>
        <mxCell id="0" />
        <mxCell id="1" parent="0" />
      </root>
    </mxGraphModel>
  </diagram>
</mxfile>
